<mxfile host="app.diagrams.net" modified="2021-07-04T22:44:51.946Z" agent="5.0 (X11; Linux x86_64) AppleWebKit/537.36 (KHTML, like Gecko) Chrome/91.0.4472.114 Safari/537.36" etag="QoZc5VceueNW2K7KSXVg" version="14.8.4" type="github">
  <diagram name="Page-1" id="9f46799a-70d6-7492-0946-bef42562c5a5">
    <mxGraphModel dx="796" dy="494" grid="1" gridSize="10" guides="1" tooltips="1" connect="1" arrows="1" fold="1" page="1" pageScale="1" pageWidth="1100" pageHeight="850" background="none" math="0" shadow="0">
      <root>
        <mxCell id="0" />
        <mxCell id="1" parent="0" />
        <mxCell id="zIY-fuFSdIYTUGfCaK3H-108" value="Proyectos" style="html=1;" vertex="1" parent="1">
          <mxGeometry x="610" y="220" width="110" height="50" as="geometry" />
        </mxCell>
        <mxCell id="zIY-fuFSdIYTUGfCaK3H-109" value="Clientes" style="html=1;" vertex="1" parent="1">
          <mxGeometry x="610" y="60" width="110" height="50" as="geometry" />
        </mxCell>
        <mxCell id="zIY-fuFSdIYTUGfCaK3H-110" value="Herramientas" style="html=1;" vertex="1" parent="1">
          <mxGeometry x="150" y="140" width="110" height="50" as="geometry" />
        </mxCell>
        <mxCell id="zIY-fuFSdIYTUGfCaK3H-111" value="Usuarios" style="html=1;" vertex="1" parent="1">
          <mxGeometry x="610" y="375" width="110" height="50" as="geometry" />
        </mxCell>
        <mxCell id="zIY-fuFSdIYTUGfCaK3H-112" value="Tareas" style="html=1;" vertex="1" parent="1">
          <mxGeometry x="420" y="380" width="110" height="50" as="geometry" />
        </mxCell>
        <mxCell id="zIY-fuFSdIYTUGfCaK3H-113" value="CotizaciÃ³n" style="html=1;" vertex="1" parent="1">
          <mxGeometry x="410" y="60" width="110" height="50" as="geometry" />
        </mxCell>
        <mxCell id="zIY-fuFSdIYTUGfCaK3H-122" value="Cable" style="html=1;" vertex="1" parent="1">
          <mxGeometry x="150" y="300" width="110" height="50" as="geometry" />
        </mxCell>
        <mxCell id="zIY-fuFSdIYTUGfCaK3H-123" value="Material" style="html=1;" vertex="1" parent="1">
          <mxGeometry x="150" y="220" width="110" height="50" as="geometry" />
        </mxCell>
        <mxCell id="zIY-fuFSdIYTUGfCaK3H-124" value="Movimientos" style="html=1;" vertex="1" parent="1">
          <mxGeometry x="420" y="220" width="110" height="50" as="geometry" />
        </mxCell>
        <mxCell id="zIY-fuFSdIYTUGfCaK3H-138" value="Relation" style="endArrow=open;html=1;endSize=12;startArrow=diamondThin;startSize=14;startFill=0;edgeStyle=orthogonalEdgeStyle;entryX=0;entryY=1;entryDx=0;entryDy=0;exitX=1;exitY=0.5;exitDx=0;exitDy=0;" edge="1" parent="1" source="zIY-fuFSdIYTUGfCaK3H-122" target="zIY-fuFSdIYTUGfCaK3H-124">
          <mxGeometry relative="1" as="geometry">
            <mxPoint x="270" y="330" as="sourcePoint" />
            <mxPoint x="310" y="610" as="targetPoint" />
          </mxGeometry>
        </mxCell>
        <mxCell id="zIY-fuFSdIYTUGfCaK3H-139" value="n" style="edgeLabel;resizable=0;html=1;align=left;verticalAlign=top;" connectable="0" vertex="1" parent="zIY-fuFSdIYTUGfCaK3H-138">
          <mxGeometry x="-1" relative="1" as="geometry" />
        </mxCell>
        <mxCell id="zIY-fuFSdIYTUGfCaK3H-140" value="n" style="edgeLabel;resizable=0;html=1;align=right;verticalAlign=top;" connectable="0" vertex="1" parent="zIY-fuFSdIYTUGfCaK3H-138">
          <mxGeometry x="1" relative="1" as="geometry" />
        </mxCell>
        <mxCell id="zIY-fuFSdIYTUGfCaK3H-155" value="Relation" style="endArrow=open;html=1;endSize=12;startArrow=diamondThin;startSize=14;startFill=0;edgeStyle=orthogonalEdgeStyle;exitX=1;exitY=0.5;exitDx=0;exitDy=0;entryX=0;entryY=0;entryDx=0;entryDy=0;" edge="1" parent="1" source="zIY-fuFSdIYTUGfCaK3H-110" target="zIY-fuFSdIYTUGfCaK3H-124">
          <mxGeometry relative="1" as="geometry">
            <mxPoint x="260" y="160" as="sourcePoint" />
            <mxPoint x="420" y="215" as="targetPoint" />
          </mxGeometry>
        </mxCell>
        <mxCell id="zIY-fuFSdIYTUGfCaK3H-156" value="n" style="edgeLabel;resizable=0;html=1;align=left;verticalAlign=top;" connectable="0" vertex="1" parent="zIY-fuFSdIYTUGfCaK3H-155">
          <mxGeometry x="-1" relative="1" as="geometry" />
        </mxCell>
        <mxCell id="zIY-fuFSdIYTUGfCaK3H-157" value="1" style="edgeLabel;resizable=0;html=1;align=right;verticalAlign=top;" connectable="0" vertex="1" parent="zIY-fuFSdIYTUGfCaK3H-155">
          <mxGeometry x="1" relative="1" as="geometry" />
        </mxCell>
        <mxCell id="zIY-fuFSdIYTUGfCaK3H-158" value="Relation" style="endArrow=open;html=1;endSize=12;startArrow=diamondThin;startSize=14;startFill=0;edgeStyle=orthogonalEdgeStyle;exitX=1;exitY=0.5;exitDx=0;exitDy=0;entryX=0;entryY=0.5;entryDx=0;entryDy=0;" edge="1" parent="1" source="zIY-fuFSdIYTUGfCaK3H-123" target="zIY-fuFSdIYTUGfCaK3H-124">
          <mxGeometry relative="1" as="geometry">
            <mxPoint x="520" y="135" as="sourcePoint" />
            <mxPoint x="680" y="200" as="targetPoint" />
          </mxGeometry>
        </mxCell>
        <mxCell id="zIY-fuFSdIYTUGfCaK3H-159" value="n" style="edgeLabel;resizable=0;html=1;align=left;verticalAlign=top;" connectable="0" vertex="1" parent="zIY-fuFSdIYTUGfCaK3H-158">
          <mxGeometry x="-1" relative="1" as="geometry" />
        </mxCell>
        <mxCell id="zIY-fuFSdIYTUGfCaK3H-160" value="n" style="edgeLabel;resizable=0;html=1;align=right;verticalAlign=top;" connectable="0" vertex="1" parent="zIY-fuFSdIYTUGfCaK3H-158">
          <mxGeometry x="1" relative="1" as="geometry" />
        </mxCell>
        <mxCell id="zIY-fuFSdIYTUGfCaK3H-164" value="Relation" style="endArrow=open;html=1;endSize=12;startArrow=diamondThin;startSize=14;startFill=0;edgeStyle=orthogonalEdgeStyle;exitX=0;exitY=0.5;exitDx=0;exitDy=0;entryX=0;entryY=0.5;entryDx=0;entryDy=0;" edge="1" parent="1" source="zIY-fuFSdIYTUGfCaK3H-113" target="zIY-fuFSdIYTUGfCaK3H-112">
          <mxGeometry relative="1" as="geometry">
            <mxPoint x="100" y="60" as="sourcePoint" />
            <mxPoint x="410" y="410" as="targetPoint" />
            <Array as="points">
              <mxPoint x="100" y="85" />
              <mxPoint x="100" y="405" />
            </Array>
          </mxGeometry>
        </mxCell>
        <mxCell id="zIY-fuFSdIYTUGfCaK3H-165" value="n" style="edgeLabel;resizable=0;html=1;align=left;verticalAlign=top;" connectable="0" vertex="1" parent="zIY-fuFSdIYTUGfCaK3H-164">
          <mxGeometry x="-1" relative="1" as="geometry" />
        </mxCell>
        <mxCell id="zIY-fuFSdIYTUGfCaK3H-166" value="n" style="edgeLabel;resizable=0;html=1;align=right;verticalAlign=top;" connectable="0" vertex="1" parent="zIY-fuFSdIYTUGfCaK3H-164">
          <mxGeometry x="1" relative="1" as="geometry" />
        </mxCell>
        <mxCell id="zIY-fuFSdIYTUGfCaK3H-167" value="Relation" style="endArrow=open;html=1;endSize=12;startArrow=diamondThin;startSize=14;startFill=0;edgeStyle=orthogonalEdgeStyle;entryX=0;entryY=0.5;entryDx=0;entryDy=0;exitX=1;exitY=0.5;exitDx=0;exitDy=0;" edge="1" parent="1" source="zIY-fuFSdIYTUGfCaK3H-113" target="zIY-fuFSdIYTUGfCaK3H-109">
          <mxGeometry relative="1" as="geometry">
            <mxPoint x="570" y="490" as="sourcePoint" />
            <mxPoint x="570" y="240" as="targetPoint" />
          </mxGeometry>
        </mxCell>
        <mxCell id="zIY-fuFSdIYTUGfCaK3H-168" value="n" style="edgeLabel;resizable=0;html=1;align=left;verticalAlign=top;" connectable="0" vertex="1" parent="zIY-fuFSdIYTUGfCaK3H-167">
          <mxGeometry x="-1" relative="1" as="geometry" />
        </mxCell>
        <mxCell id="zIY-fuFSdIYTUGfCaK3H-169" value="1" style="edgeLabel;resizable=0;html=1;align=right;verticalAlign=top;" connectable="0" vertex="1" parent="zIY-fuFSdIYTUGfCaK3H-167">
          <mxGeometry x="1" relative="1" as="geometry" />
        </mxCell>
        <mxCell id="zIY-fuFSdIYTUGfCaK3H-170" value="Relation" style="endArrow=open;html=1;endSize=12;startArrow=diamondThin;startSize=14;startFill=0;edgeStyle=orthogonalEdgeStyle;exitX=1;exitY=0.5;exitDx=0;exitDy=0;entryX=0;entryY=0.5;entryDx=0;entryDy=0;" edge="1" parent="1" source="zIY-fuFSdIYTUGfCaK3H-124" target="zIY-fuFSdIYTUGfCaK3H-108">
          <mxGeometry relative="1" as="geometry">
            <mxPoint x="450" y="310" as="sourcePoint" />
            <mxPoint x="610" y="245" as="targetPoint" />
          </mxGeometry>
        </mxCell>
        <mxCell id="zIY-fuFSdIYTUGfCaK3H-171" value="n" style="edgeLabel;resizable=0;html=1;align=left;verticalAlign=top;" connectable="0" vertex="1" parent="zIY-fuFSdIYTUGfCaK3H-170">
          <mxGeometry x="-1" relative="1" as="geometry" />
        </mxCell>
        <mxCell id="zIY-fuFSdIYTUGfCaK3H-172" value="1" style="edgeLabel;resizable=0;html=1;align=right;verticalAlign=top;" connectable="0" vertex="1" parent="zIY-fuFSdIYTUGfCaK3H-170">
          <mxGeometry x="1" relative="1" as="geometry" />
        </mxCell>
        <mxCell id="zIY-fuFSdIYTUGfCaK3H-173" value="Relation" style="endArrow=open;html=1;endSize=12;startArrow=diamondThin;startSize=14;startFill=0;edgeStyle=orthogonalEdgeStyle;entryX=0.5;entryY=0;entryDx=0;entryDy=0;exitX=0.5;exitY=1;exitDx=0;exitDy=0;" edge="1" parent="1" source="zIY-fuFSdIYTUGfCaK3H-108" target="zIY-fuFSdIYTUGfCaK3H-111">
          <mxGeometry relative="1" as="geometry">
            <mxPoint x="190" y="650" as="sourcePoint" />
            <mxPoint x="350" y="650" as="targetPoint" />
          </mxGeometry>
        </mxCell>
        <mxCell id="zIY-fuFSdIYTUGfCaK3H-174" value="n" style="edgeLabel;resizable=0;html=1;align=left;verticalAlign=top;" connectable="0" vertex="1" parent="zIY-fuFSdIYTUGfCaK3H-173">
          <mxGeometry x="-1" relative="1" as="geometry" />
        </mxCell>
        <mxCell id="zIY-fuFSdIYTUGfCaK3H-175" value="n" style="edgeLabel;resizable=0;html=1;align=right;verticalAlign=top;" connectable="0" vertex="1" parent="zIY-fuFSdIYTUGfCaK3H-173">
          <mxGeometry x="1" relative="1" as="geometry" />
        </mxCell>
        <mxCell id="zIY-fuFSdIYTUGfCaK3H-176" value="Relation" style="endArrow=open;html=1;endSize=12;startArrow=diamondThin;startSize=14;startFill=0;edgeStyle=orthogonalEdgeStyle;entryX=0.1;entryY=1;entryDx=0;entryDy=0;entryPerimeter=0;exitX=0.75;exitY=0;exitDx=0;exitDy=0;" edge="1" parent="1" source="zIY-fuFSdIYTUGfCaK3H-112" target="zIY-fuFSdIYTUGfCaK3H-108">
          <mxGeometry relative="1" as="geometry">
            <mxPoint x="200" y="660" as="sourcePoint" />
            <mxPoint x="360" y="660" as="targetPoint" />
          </mxGeometry>
        </mxCell>
        <mxCell id="zIY-fuFSdIYTUGfCaK3H-177" value="n" style="edgeLabel;resizable=0;html=1;align=left;verticalAlign=top;" connectable="0" vertex="1" parent="zIY-fuFSdIYTUGfCaK3H-176">
          <mxGeometry x="-1" relative="1" as="geometry" />
        </mxCell>
        <mxCell id="zIY-fuFSdIYTUGfCaK3H-178" value="n" style="edgeLabel;resizable=0;html=1;align=right;verticalAlign=top;" connectable="0" vertex="1" parent="zIY-fuFSdIYTUGfCaK3H-176">
          <mxGeometry x="1" relative="1" as="geometry" />
        </mxCell>
        <mxCell id="zIY-fuFSdIYTUGfCaK3H-179" value="Relation" style="endArrow=open;html=1;endSize=12;startArrow=diamondThin;startSize=14;startFill=0;edgeStyle=orthogonalEdgeStyle;entryX=0.5;entryY=1;entryDx=0;entryDy=0;exitX=0.5;exitY=1;exitDx=0;exitDy=0;" edge="1" parent="1" source="zIY-fuFSdIYTUGfCaK3H-112" target="zIY-fuFSdIYTUGfCaK3H-111">
          <mxGeometry relative="1" as="geometry">
            <mxPoint x="210" y="670" as="sourcePoint" />
            <mxPoint x="370" y="670" as="targetPoint" />
            <Array as="points">
              <mxPoint x="475" y="460" />
              <mxPoint x="665" y="460" />
            </Array>
          </mxGeometry>
        </mxCell>
        <mxCell id="zIY-fuFSdIYTUGfCaK3H-180" value="n" style="edgeLabel;resizable=0;html=1;align=left;verticalAlign=top;" connectable="0" vertex="1" parent="zIY-fuFSdIYTUGfCaK3H-179">
          <mxGeometry x="-1" relative="1" as="geometry" />
        </mxCell>
        <mxCell id="zIY-fuFSdIYTUGfCaK3H-181" value="n" style="edgeLabel;resizable=0;html=1;align=right;verticalAlign=top;" connectable="0" vertex="1" parent="zIY-fuFSdIYTUGfCaK3H-179">
          <mxGeometry x="1" relative="1" as="geometry" />
        </mxCell>
        <mxCell id="zIY-fuFSdIYTUGfCaK3H-182" value="Relation" style="endArrow=open;html=1;endSize=12;startArrow=diamondThin;startSize=14;startFill=0;edgeStyle=orthogonalEdgeStyle;entryX=0.5;entryY=1;entryDx=0;entryDy=0;exitX=0.5;exitY=0;exitDx=0;exitDy=0;" edge="1" parent="1" source="zIY-fuFSdIYTUGfCaK3H-108" target="zIY-fuFSdIYTUGfCaK3H-109">
          <mxGeometry relative="1" as="geometry">
            <mxPoint x="760" y="400" as="sourcePoint" />
            <mxPoint x="750" y="360" as="targetPoint" />
            <Array as="points">
              <mxPoint x="665" y="140" />
              <mxPoint x="665" y="140" />
            </Array>
          </mxGeometry>
        </mxCell>
        <mxCell id="zIY-fuFSdIYTUGfCaK3H-183" value="n" style="edgeLabel;resizable=0;html=1;align=left;verticalAlign=top;" connectable="0" vertex="1" parent="zIY-fuFSdIYTUGfCaK3H-182">
          <mxGeometry x="-1" relative="1" as="geometry" />
        </mxCell>
        <mxCell id="zIY-fuFSdIYTUGfCaK3H-184" value="1" style="edgeLabel;resizable=0;html=1;align=right;verticalAlign=top;" connectable="0" vertex="1" parent="zIY-fuFSdIYTUGfCaK3H-182">
          <mxGeometry x="1" relative="1" as="geometry" />
        </mxCell>
      </root>
    </mxGraphModel>
  </diagram>
</mxfile>
